<svg id="Group_405" data-name="Group 405" xmlns="http://www.w3.org/2000/svg" xmlns:xlink="http://www.w3.org/1999/xlink" width="30.163" height="30.795" viewBox="0 0 30.163 30.795">
  <defs>
    <clipPath id="clip-path">
      <rect id="Rectangle_695" data-name="Rectangle 695" width="30.163" height="30.795" fill="#003ad9"/>
    </clipPath>
  </defs>
  <g id="Group_404" data-name="Group 404" clip-path="url(#clip-path)">
    <path id="Path_450" data-name="Path 450" d="M33.832,1.251c-1.387.058-2.7.118-4,.164a.578.578,0,0,1-.585-.858.784.784,0,0,1,.511-.316c.592-.066,1.19-.076,1.786-.1Q33.3.067,35.057,0c.566-.021.8.207.777.767q-.083,2.36-.174,4.72a.612.612,0,1,1-1.211-.038c.034-.958.072-1.915.108-2.873,0-.093,0-.186,0-.341-.538.471-1.029.9-1.518,1.329q-6.853,6.022-13.7,12.049a.772.772,0,0,1-.858.163c-2.01-.726-4.024-1.439-6.034-2.166a.417.417,0,0,0-.471.082q-2.307,1.9-4.626,3.8c-.061.05-.121.1-.184.146a.6.6,0,1,1-.745-.944c.64-.529,1.286-1.053,1.929-1.58C9.4,14.249,10.459,13.4,11.5,12.522a.9.9,0,0,1,.993-.175c1.98.721,3.968,1.422,5.951,2.138a.376.376,0,0,0,.441-.073Q26.227,7.946,33.578,1.491c.07-.062.136-.128.254-.239" transform="translate(-5.797 0)" fill="#003ad9"/>
    <path id="Path_451" data-name="Path 451" d="M357.947,232.021a8.109,8.109,0,0,1,3.431.6,4.12,4.12,0,0,1,1,.647,1.6,1.6,0,0,1-.04,2.547,4.561,4.561,0,0,1-2.129.985,8.534,8.534,0,0,1-4.734-.262,3.344,3.344,0,0,1-1.5-.988,1.547,1.547,0,0,1,0-2.065,3.879,3.879,0,0,1,2.254-1.215c.674-.146,1.367-.2,1.71-.253m.339,1.182c-.5.058-1.01.092-1.508.18a3.684,3.684,0,0,0-1.715.7c-.353.284-.369.572-.024.843a2.809,2.809,0,0,0,.753.439,7.086,7.086,0,0,0,5.008-.009,2.97,2.97,0,0,0,.829-.529.366.366,0,0,0,.006-.61,2.985,2.985,0,0,0-.72-.486,6.788,6.788,0,0,0-2.628-.529" transform="translate(-332.832 -218.402)" fill="#003ad9"/>
    <path id="Path_452" data-name="Path 452" d="M181.372,319.315a7.8,7.8,0,0,1-3.113-.651,4.169,4.169,0,0,1-1.137-.8,1.519,1.519,0,0,1,.022-2.209,4.042,4.042,0,0,1,2.067-1.1,8.539,8.539,0,0,1,4.934.191,3.49,3.49,0,0,1,1.452.907,1.556,1.556,0,0,1,.023,2.218,4.164,4.164,0,0,1-2.393,1.2c-.61.121-1.236.163-1.855.241m.28-1.234a12.55,12.55,0,0,0,1.537-.243,5.1,5.1,0,0,0,1.353-.6c.451-.276.437-.607.006-.926a3.049,3.049,0,0,0-.741-.4,7.048,7.048,0,0,0-4.289-.184,4.689,4.689,0,0,0-1.278.553c-.507.313-.491.656-.006,1a3.3,3.3,0,0,0,.613.337,7.407,7.407,0,0,0,2.805.462" transform="translate(-166.287 -295.836)" fill="#003ad9"/>
    <path id="Path_453" data-name="Path 453" d="M4.709,401.392a8.391,8.391,0,0,1-3.146-.654,3.116,3.116,0,0,1-1.19-.881,1.529,1.529,0,0,1-.005-1.995,3.234,3.234,0,0,1,1.567-1.039,8.255,8.255,0,0,1,5.654.056,4.069,4.069,0,0,1,1.276.8,1.556,1.556,0,0,1-.005,2.381,4.276,4.276,0,0,1-2.238,1.078c-.629.124-1.274.173-1.912.254m0-3.884c-.634.1-1.279.155-1.9.311a4.569,4.569,0,0,0-1.247.549c-.479.294-.474.639-.02.965a3.211,3.211,0,0,0,.77.41,7.207,7.207,0,0,0,4.178.19,3.221,3.221,0,0,0,1.5-.7c.3-.272.3-.5-.007-.76a3.115,3.115,0,0,0-.718-.44,7.726,7.726,0,0,0-2.553-.529" transform="translate(0 -373.088)" fill="#003ad9"/>
    <path id="Path_454" data-name="Path 454" d="M353.783,441.337h1.155a1.428,1.428,0,0,0,.975.834,7.382,7.382,0,0,0,5.108,0,1.393,1.393,0,0,0,.945-.773.18.18,0,0,1,.14-.073c.349-.006.7,0,1.062,0a1.765,1.765,0,0,1-.616,1.348,4.172,4.172,0,0,1-2.081.946,9.542,9.542,0,0,1-4.753-.2,3.064,3.064,0,0,1-1.6-1.036,1.562,1.562,0,0,1-.339-1.043" transform="translate(-333.017 -415.419)" fill="#003ad9"/>
    <path id="Path_455" data-name="Path 455" d="M176.939,441.324c.373,0,.723,0,1.073,0a.173.173,0,0,1,.129.087,1.37,1.37,0,0,0,.848.719,6.733,6.733,0,0,0,3.452.431,9.744,9.744,0,0,0,1.788-.417,1.294,1.294,0,0,0,.9-.737.174.174,0,0,1,.133-.082c.35-.007.7,0,1.063,0a1.835,1.835,0,0,1-.878,1.568,4.865,4.865,0,0,1-2.153.791,9.55,9.55,0,0,1-4.408-.264,3.185,3.185,0,0,1-1.545-.967,1.662,1.662,0,0,1-.4-1.128" transform="translate(-166.554 -415.419)" fill="#003ad9"/>
    <path id="Path_456" data-name="Path 456" d="M9.66,482.2a1.834,1.834,0,0,1-.888,1.557,4.969,4.969,0,0,1-2.242.8,9.282,9.282,0,0,1-4.262-.275A5.232,5.232,0,0,1,.983,483.6a1.646,1.646,0,0,1-.7-1.417H1.448a1.2,1.2,0,0,0,.792.816,5.675,5.675,0,0,0,2.02.444,7.532,7.532,0,0,0,3.4-.427,1.246,1.246,0,0,0,.834-.818Z" transform="translate(-0.264 -453.886)" fill="#003ad9"/>
    <path id="Path_457" data-name="Path 457" d="M353.8,482.227h1.163a1.258,1.258,0,0,0,.871.833,7.6,7.6,0,0,0,3.374.411A5.513,5.513,0,0,0,361.28,483a1.186,1.186,0,0,0,.7-.671.193.193,0,0,1,.14-.107c.35-.009.7,0,1.07,0a1.82,1.82,0,0,1-.72,1.433,4.063,4.063,0,0,1-1.77.8,9.515,9.515,0,0,1-5.061-.19,3.058,3.058,0,0,1-1.437-.922,1.591,1.591,0,0,1-.4-1.113" transform="translate(-333.033 -453.909)" fill="#003ad9"/>
    <path id="Path_458" data-name="Path 458" d="M176.936,482.431H178.1a1.343,1.343,0,0,0,.952.863,7.2,7.2,0,0,0,3.291.37,11.075,11.075,0,0,0,1.884-.386,1.216,1.216,0,0,0,.928-.849h1.168a1.679,1.679,0,0,1-.521,1.241,3.748,3.748,0,0,1-1.934.977,9.626,9.626,0,0,1-4.923-.125,3.274,3.274,0,0,1-1.545-.912,1.676,1.676,0,0,1-.466-1.18" transform="translate(-166.551 -454.113)" fill="#003ad9"/>
    <path id="Path_459" data-name="Path 459" d="M186.408,400.534a1.754,1.754,0,0,1-.679,1.355,4.741,4.741,0,0,1-2.346.986,8.76,8.76,0,0,1-4.506-.313,3.187,3.187,0,0,1-1.51-1.017,1.506,1.506,0,0,1-.346-1.009c.357,0,.7,0,1.052,0a.2.2,0,0,1,.146.1,1.158,1.158,0,0,0,.826.729,8.69,8.69,0,0,0,1.7.393,7.677,7.677,0,0,0,3.3-.272c.342-.117.787-.272.934-.545.269-.5.645-.412,1.042-.415h.38" transform="translate(-166.631 -377.021)" fill="#003ad9"/>
    <path id="Path_460" data-name="Path 460" d="M353.831,400.592c.358,0,.689-.005,1.02,0a.222.222,0,0,1,.17.106,1.081,1.081,0,0,0,.727.676,9.738,9.738,0,0,0,1.751.434,7.761,7.761,0,0,0,3.279-.233c.509-.16,1.04-.318,1.238-.917.012-.035.094-.067.144-.068.341-.006.682,0,1.048,0a1.535,1.535,0,0,1-.382,1.055,3.1,3.1,0,0,1-1.446.961,8.466,8.466,0,0,1-5.741-.018,4.809,4.809,0,0,1-1.322-.834,1.383,1.383,0,0,1-.486-1.163" transform="translate(-333.062 -377.078)" fill="#003ad9"/>
    <path id="Path_461" data-name="Path 461" d="M353.79,360.177h1.162a1.313,1.313,0,0,0,1.025.932,7.48,7.48,0,0,0,2.838.32,17.876,17.876,0,0,0,1.969-.264,2.3,2.3,0,0,0,.648-.261.947.947,0,0,0,.555-.723h1.191a1.745,1.745,0,0,1-.667,1.317,4.37,4.37,0,0,1-2,.923,8.932,8.932,0,0,1-4.773-.2,3.409,3.409,0,0,1-1.484-.909,1.585,1.585,0,0,1-.464-1.133" transform="translate(-333.024 -339.036)" fill="#003ad9"/>
    <path id="Path_462" data-name="Path 462" d="M353.857,317.17a1.544,1.544,0,0,1,.156-.017c.332,0,.663,0,1,0a1.079,1.079,0,0,0,.875.931,11.2,11.2,0,0,0,1.778.319,9.733,9.733,0,0,0,3.145-.192,2.992,2.992,0,0,0,.47-.158,1.126,1.126,0,0,0,.78-.886h1.172a1.679,1.679,0,0,1-.539,1.206,4.067,4.067,0,0,1-2.042,1.021,8.8,8.8,0,0,1-5.046-.252,3.113,3.113,0,0,1-1.37-.921,1.459,1.459,0,0,1-.384-1.049" transform="translate(-333.084 -298.537)" fill="#003ad9"/>
  </g>
</svg>
