<svg id="Group_413" data-name="Group 413" xmlns="http://www.w3.org/2000/svg" xmlns:xlink="http://www.w3.org/1999/xlink" width="25.291" height="23.078" viewBox="0 0 25.291 23.078">
  <defs>
    <clipPath id="clip-path">
      <rect id="Rectangle_698" data-name="Rectangle 698" width="25.291" height="23.078" fill="#20bf0a"/>
    </clipPath>
  </defs>
  <g id="Group_412" data-name="Group 412" clip-path="url(#clip-path)">
    <path id="Path_471" data-name="Path 471" d="M10.079,410.629c-1.538,0-3.075.008-4.613,0a18.22,18.22,0,0,1-2.942-.219,4.955,4.955,0,0,1-1.573-.493A1.7,1.7,0,0,1,0,408.341a7.744,7.744,0,0,1,6.525-7.987,8,8,0,0,1,1.35-.113c1.548-.013,3.1-.011,4.645,0A7.8,7.8,0,0,1,20.1,406.48a8.033,8.033,0,0,1,.124,2.091,1.589,1.589,0,0,1-.915,1.314,5.352,5.352,0,0,1-1.849.552,27.188,27.188,0,0,1-3.829.2c-1.185.009-2.37,0-3.555,0v-.014m-.06-1.3v.007c1.464,0,2.928.009,4.392,0a19.289,19.289,0,0,0,3.412-.258,5.875,5.875,0,0,0,.957-.3.349.349,0,0,0,.253-.333,12.186,12.186,0,0,0-.078-1.464,6.241,6.241,0,0,0-2.235-3.914,6.25,6.25,0,0,0-3.959-1.525c-1.732-.036-3.465-.012-5.2-.008a4.73,4.73,0,0,0-.722.062,6.48,6.48,0,0,0-4.92,3.461,6.36,6.36,0,0,0-.721,3.229.528.528,0,0,0,.347.555,5.839,5.839,0,0,0,.934.273,16.081,16.081,0,0,0,2.767.218c1.59.014,3.181,0,4.771,0" transform="translate(0 -387.567)" fill="#20bf0a"/>
    <path id="Path_472" data-name="Path 472" d="M122.628,0a6.155,6.155,0,0,1,6.081,5,5.815,5.815,0,0,1-1.741,5.448,6.043,6.043,0,0,1-4.661,1.764,6.124,6.124,0,0,1-5.677-4.546,5.837,5.837,0,0,1,1.929-6.158A6.024,6.024,0,0,1,122.628,0m4.918,6.226a4.89,4.89,0,0,0-.616-2.462A4.97,4.97,0,0,0,119.85,2.1a4.766,4.766,0,0,0-1.584,6.243,4.979,4.979,0,0,0,5.117,2.522,4.867,4.867,0,0,0,4.163-4.64" transform="translate(-112.727 0)" fill="#20bf0a"/>
    <path id="Path_473" data-name="Path 473" d="M561.23,249.4h-.206c-.79,0-1.58,0-2.369,0a.58.58,0,1,1-.026-1.158c.8,0,1.59,0,2.385,0h.217v-.191c0-.811,0-1.622,0-2.432a.568.568,0,0,1,.416-.552.549.549,0,0,1,.634.233.914.914,0,0,1,.1.419c.01.774,0,1.548,0,2.322v.2h.208c.827,0,1.653,0,2.48,0a.567.567,0,0,1,.546.38.581.581,0,0,1-.162.633.66.66,0,0,1-.47.146q-1.177,0-2.354,0c-.276,0-.248-.034-.248.24,0,.795,0,1.59,0,2.385a.578.578,0,0,1-.551.641.569.569,0,0,1-.606-.584c0-.658,0-1.316,0-1.974V249.4" transform="translate(-540.367 -237.284)" fill="#20bf0a"/>
  </g>
</svg>
