<svg xmlns="http://www.w3.org/2000/svg" xmlns:xlink="http://www.w3.org/1999/xlink" width="32.732" height="31.962" viewBox="0 0 32.732 31.962">
  <defs>
    <clipPath id="clip-path">
      <rect id="Rectangle_699" data-name="Rectangle 699" width="32.732" height="31.962" fill="#3318d1"/>
    </clipPath>
  </defs>
  <g id="Group_414" data-name="Group 414" clip-path="url(#clip-path)">
    <path id="Path_474" data-name="Path 474" d="M32.732,29.877c-.48.362-.964.721-1.441,1.088-.42.324-.834.656-1.266,1l-.469-.563,1.42-1.143,0-.071h-.349q-6.966,0-13.933,0a14.144,14.144,0,0,1-8.116-2.355,13.672,13.672,0,0,1-6.129-9.3A13.786,13.786,0,0,1,6.6,5.765a13.235,13.235,0,0,1,4.783-2.987.421.421,0,0,0,.195-.124H1.713L3.177,3.834l-.459.573L0,2.2,2.716,0l.467.617L1.678,1.83h.458c4.687,0,9.374-.042,14.061.011a13.884,13.884,0,0,1,12.552,7.3,12.848,12.848,0,0,1,1.745,7.694c-.519,6.045-3.655,10.19-9.253,12.493-.045.018-.086.045-.188.1h9.992l-1.483-1.193.459-.573c.745.59,1.468,1.166,2.2,1.736.164.128.344.237.516.355ZM16.366,2.574A13.433,13.433,0,1,0,29.8,16.012,13.425,13.425,0,0,0,16.366,2.574" fill="#3318d1"/>
    <path id="Path_475" data-name="Path 475" d="M104.238,111.323c-.779-.308-1.54-.6-2.292-.921-.075-.032-.134-.218-.121-.322.056-.421.142-.838.218-1.256a.338.338,0,0,0-.153-.4,8.192,8.192,0,0,1-2.139-2.082.355.355,0,0,0-.443-.179c-.42.111-.85.189-1.279.261-.091.015-.259-.027-.286-.089-.333-.745-.647-1.5-.976-2.275.406-.281.791-.564,1.193-.819a.444.444,0,0,0,.229-.545,7.656,7.656,0,0,1-.05-2.73.565.565,0,0,0-.329-.709c-.394-.2-.754-.47-1.145-.721.31-.785.609-1.556.927-2.319.027-.063.191-.111.282-.1.41.057.818.131,1.224.215a.415.415,0,0,0,.5-.195,8.132,8.132,0,0,1,2.047-2.085.357.357,0,0,0,.178-.444c-.11-.421-.186-.851-.257-1.28-.015-.091.026-.256.087-.284.746-.333,1.5-.647,2.273-.975.294.424.59.826.858,1.246a.368.368,0,0,0,.446.187,7.965,7.965,0,0,1,2.825-.058.521.521,0,0,0,.643-.282c.22-.409.491-.79.751-1.2.78.309,1.541.6,2.293.92a.346.346,0,0,1,.124.292c-.054.41-.129.819-.213,1.224a.414.414,0,0,0,.194.5,8.1,8.1,0,0,1,2.086,2.047.356.356,0,0,0,.443.179,13.213,13.213,0,0,1,1.312-.261.337.337,0,0,1,.28.146c.3.668.575,1.348.872,2.018.075.169.021.25-.111.338-.362.243-.715.5-1.081.737a.333.333,0,0,0-.17.4,8.086,8.086,0,0,1,.054,2.919.462.462,0,0,0,.264.56c.416.231.808.505,1.227.772-.308.778-.6,1.539-.92,2.291a.346.346,0,0,1-.292.126c-.41-.054-.819-.129-1.224-.213a.415.415,0,0,0-.5.195,8.136,8.136,0,0,1-2.046,2.087.356.356,0,0,0-.178.443c.11.42.173.853.266,1.278a.245.245,0,0,1-.176.337c-.65.261-1.3.533-1.934.826-.22.1-.319.037-.434-.142-.224-.349-.476-.68-.7-1.029a.334.334,0,0,0-.4-.171,8.078,8.078,0,0,1-2.919.056.463.463,0,0,0-.562.262c-.231.416-.5.808-.769,1.226M97.7,104.317c.158.362.32.7.45,1.044.075.2.187.216.368.173.372-.088.753-.139,1.119-.245a.378.378,0,0,1,.49.2,8.488,8.488,0,0,0,2.618,2.578.409.409,0,0,1,.115.338c-.053.4-.149.793-.207,1.192-.013.091.029.254.091.281.386.168.784.306,1.184.457.271-.419.533-.806.773-1.207a.31.31,0,0,1,.387-.172,8,8,0,0,0,3.729-.05.29.29,0,0,1,.365.151c.266.41.547.81.834,1.231.358-.156.7-.317,1.056-.456.179-.07.206-.174.167-.344-.094-.4-.161-.813-.268-1.213a.273.273,0,0,1,.154-.357,7.744,7.744,0,0,0,2.555-2.589.381.381,0,0,1,.464-.207c.384.08.771.155,1.159.215.085.013.24-.017.263-.071.17-.4.316-.8.47-1.206-.42-.27-.8-.53-1.191-.76a.344.344,0,0,1-.181-.441,7.6,7.6,0,0,0-.047-3.694.274.274,0,0,1,.142-.36c.409-.267.809-.547,1.227-.832-.153-.351-.314-.685-.445-1.031-.079-.207-.191-.234-.389-.185-.381.095-.773.146-1.15.253-.212.06-.3-.01-.406-.175A7.765,7.765,0,0,0,111,94.283a.335.335,0,0,1-.185-.412c.081-.4.159-.792.221-1.19.013-.084-.021-.237-.076-.261-.395-.171-.8-.316-1.2-.469-.278.431-.543.818-.78,1.22a.308.308,0,0,1-.393.158,7.992,7.992,0,0,0-3.7.048.306.306,0,0,1-.391-.154c-.264-.41-.546-.808-.827-1.221-.377.165-.742.31-1.091.487a.344.344,0,0,0-.127.291,8.526,8.526,0,0,0,.245,1.152c.08.262-.02.373-.217.509a7.97,7.97,0,0,0-2.555,2.592.4.4,0,0,1-.329.129c-.41-.055-.814-.152-1.224-.212a.317.317,0,0,0-.27.112c-.165.377-.3.767-.451,1.164.393.254.758.513,1.145.732a.406.406,0,0,1,.226.512,7.971,7.971,0,0,0,.053,3.667.26.26,0,0,1-.132.338c-.409.267-.81.548-1.242.843" transform="translate(-90.475 -85.136)" fill="#3318d1"/>
    <path id="Path_476" data-name="Path 476" d="M170.906,159.595a5.764,5.764,0,1,1-5.825,5.776,5.848,5.848,0,0,1,5.825-5.776m-.047.79a4.991,4.991,0,0,0-5.034,4.947,5.052,5.052,0,0,0,5,5.1,5.025,5.025,0,1,0,.036-10.05" transform="translate(-154.509 -149.374)" fill="#3318d1"/>
    <path id="Path_477" data-name="Path 477" d="M228.965,190.579a1.734,1.734,0,0,1,1.493,1.577h-.7c-.145-.574-.408-.915-1.26-.885a.938.938,0,0,0-1.005.9,1.016,1.016,0,0,0,.989.974,4.372,4.372,0,0,1,.756.1,1.671,1.671,0,0,1,1.268,1.509,1.749,1.749,0,0,1-1.207,1.6.329.329,0,0,0-.279.4c.013.22,0,.442,0,.684H228.3v-.995c-.794-.273-1.42-.682-1.5-1.627h.7a1.1,1.1,0,0,0,1.317.828.912.912,0,0,0,.942-.883,1,1,0,0,0-1-.927,3.9,3.9,0,0,1-.816-.127,1.635,1.635,0,0,1-1.2-1.493,1.6,1.6,0,0,1,1.147-1.524c.285-.09.364-.223.333-.494a5.574,5.574,0,0,1,0-.6h.731Z" transform="translate(-212.236 -177.452)" fill="#3318d1"/>
  </g>
</svg>
