<svg xmlns="http://www.w3.org/2000/svg" xmlns:xlink="http://www.w3.org/1999/xlink" width="30.152" height="30.176" viewBox="0 0 30.152 30.176">
  <defs>
    <clipPath id="clip-path">
      <rect id="Rectangle_697" data-name="Rectangle 697" width="30.152" height="30.176" fill="#04abc7"/>
    </clipPath>
  </defs>
  <g id="Group_410" data-name="Group 410" clip-path="url(#clip-path)">
    <path id="Path_464" data-name="Path 464" d="M5.058,174.069a8.622,8.622,0,0,1-.315,1.422,2.455,2.455,0,0,1-2.813,1.387,2.448,2.448,0,0,1-1.921-2.432C-.008,172.164,0,169.88,0,167.6c0-.827-.006-1.655,0-2.482a2.463,2.463,0,0,1,2.027-2.566,2.426,2.426,0,0,1,2.875,1.877c.022.072.051.142.089.25a6.153,6.153,0,0,1,2.98-.749,9.759,9.759,0,0,1,3.664.733c2.338.941,4.666,1.91,7.012,2.832a2.853,2.853,0,0,1,1.823,1.617c.608-.337,1.193-.66,1.775-.985,1.109-.619,2.21-1.253,3.326-1.858a3.025,3.025,0,0,1,3.09,5.2c-2.988,1.707-5.961,3.445-8.992,5.074a6.965,6.965,0,0,1-4.221,1.166,13.2,13.2,0,0,1-2.844-.633c-2.4-.9-4.768-1.9-7.149-2.858-.139-.056-.282-.1-.4-.147m-.089-4.651c0,1.026.016,2.053-.009,3.079a.568.568,0,0,0,.42.639c2.47.981,4.954,1.93,7.39,2.988a7.008,7.008,0,0,0,6.54-.472c1.871-1.039,3.724-2.111,5.586-3.169,1.064-.6,2.132-1.2,3.19-1.815a2.005,2.005,0,0,0,.994-2.375,2.029,2.029,0,0,0-2.992-1.194q-2.613,1.436-5.2,2.917a.784.784,0,0,0-.316.445,2.447,2.447,0,0,1-3.443,1.763q-1.454-.559-2.9-1.127c-1.024-.4-2.045-.807-3.068-1.209-.314-.124-.5-.345-.36-.675a.479.479,0,0,1,.728-.231c.055.027.113.045.17.067,1.934.756,3.867,1.515,5.8,2.266a1.5,1.5,0,1,0,1.052-2.8c-2.2-.883-4.4-1.751-6.58-2.666A10.677,10.677,0,0,0,8.4,164.9a4.514,4.514,0,0,0-3.165.825.765.765,0,0,0-.257.518c-.024,1.056-.012,2.114-.011,3.17M1,169.729H.989c0,1.547-.008,3.094,0,4.642A1.447,1.447,0,0,0,2.109,175.9a1.506,1.506,0,0,0,1.9-1.628c.021-3.048.013-6.1.007-9.145a1.57,1.57,0,0,0-.518-1.278,1.461,1.461,0,0,0-1.587-.263A1.372,1.372,0,0,0,1,164.9c-.01,1.608,0,3.217,0,4.825" transform="translate(0 -147.571)" fill="#04abc7"/>
    <path id="Path_465" data-name="Path 465" d="M211.653,9.38a4.641,4.641,0,0,1-4.706-4.709,4.723,4.723,0,0,1,9.446.024,4.618,4.618,0,0,1-4.74,4.684m-3.735-4.662A3.749,3.749,0,1,0,211.646.987a3.761,3.761,0,0,0-3.729,3.732" transform="translate(-187.917 -0.001)" fill="#04abc7"/>
    <path id="Path_466" data-name="Path 466" d="M130.679,92.264a4.716,4.716,0,1,1,4.584,4.722,4.693,4.693,0,0,1-4.584-4.722M135.4,96a3.719,3.719,0,0,0,3.738-3.767A3.754,3.754,0,1,0,135.4,96" transform="translate(-118.662 -79.524)" fill="#04abc7"/>
    <path id="Path_467" data-name="Path 467" d="M50.545,55.652a3.557,3.557,0,1,1-3.567,3.584,3.522,3.522,0,0,1,3.567-3.584m2.589,3.588a2.6,2.6,0,1,0-2.592,2.568,2.648,2.648,0,0,0,2.592-2.568" transform="translate(-42.658 -50.534)" fill="#04abc7"/>
    <path id="Path_468" data-name="Path 468" d="M241.26,24.559a12.437,12.437,0,0,0,1.425.152.582.582,0,0,0,.447-.35c.021-.146-.165-.38-.321-.48a6.024,6.024,0,0,0-.837-.363,1.239,1.239,0,0,1-.873-1.175,1.192,1.192,0,0,1,.923-1.18c.452-.134.2-.475.327-.742H243c.012.184.023.362.033.516a3.678,3.678,0,0,1,.971.371c.091.067-.062.467-.1.69a8.188,8.188,0,0,0-1.183-.134c-.172,0-.34.2-.51.305.11.15.189.349.335.438a7.039,7.039,0,0,0,.838.366,1.3,1.3,0,0,1,.906,1.254,1.339,1.339,0,0,1-1.023,1.264c-.071.026-.145.045-.237.073l-.038.7h-.68l-.05-.626-.688-.132c-.4-.076-.6-.262-.4-.691a1.446,1.446,0,0,0,.082-.254" transform="translate(-218.929 -18.544)" fill="#04abc7"/>
    <path id="Path_469" data-name="Path 469" d="M166.152,108.629v-.609h.7l.038.542c1.12.33,1.12.33.8,1.013a11.016,11.016,0,0,0-1.224-.1.5.5,0,0,0-.385.3c-.021.122.137.33.271.41a7.513,7.513,0,0,0,.877.391,1.265,1.265,0,0,1,.893,1.255,1.3,1.3,0,0,1-.984,1.242c-.267.091-.264.1-.3.785h-.681a1.272,1.272,0,0,0-.03-.394,1.047,1.047,0,0,0-.252-.292c-.016-.016-.059,0-.089-.009-.927-.133-.95-.168-.683-1.045a7.685,7.685,0,0,0,1.239.2.773.773,0,0,0,.608-.333c.138-.316-.169-.475-.429-.589s-.511-.2-.76-.312a1.191,1.191,0,0,1-.819-1.2,1.246,1.246,0,0,1,.913-1.14l.294-.118" transform="translate(-149.776 -98.087)" fill="#04abc7"/>
    <path id="Path_470" data-name="Path 470" d="M73.06,74.714a9.336,9.336,0,0,0,1.025.119.42.42,0,0,0,.33-.235.447.447,0,0,0-.2-.357,6.59,6.59,0,0,0-.7-.319.846.846,0,0,1-.558-.818.962.962,0,0,1,.6-.852c.163-.086.264-.289.393-.439l-.075-.105.456-.026.092.43.7.186-.131.578a3,3,0,0,0-.719-.135c-.168.009-.329.158-.493.245a1.878,1.878,0,0,0,.343.371c.191.119.421.174.625.275a.858.858,0,0,1,.515.845.954.954,0,0,1-.53.844,3.473,3.473,0,0,0-.52.48l.093.136-.419.03-.107-.443-.852-.235.135-.576" transform="translate(-66.219 -65.091)" fill="#04abc7"/>
  </g>
</svg>
