<svg xmlns="http://www.w3.org/2000/svg" width="20.049" height="20.194" viewBox="0 0 20.049 20.194">
  <g id="Iconly_Curved_Calendar" data-name="Iconly/Curved/Calendar" transform="translate(0.75 0.75)">
    <g id="Calendar">
      <path id="Stroke_1" data-name="Stroke 1" d="M0,8.621C0,2.155,2.319,0,9.274,0s9.275,2.155,9.275,8.621-2.319,8.621-9.275,8.621S0,15.088,0,8.621Z" transform="translate(0 1.452)" fill="none" stroke="#FFFFFF" stroke-linecap="round" stroke-linejoin="round" stroke-width="1.5"/>
      <path id="Stroke_3" data-name="Stroke 3" d="M0,.5H18.008" transform="translate(0.275 6.299)" fill="none" stroke="#FFFFFF" stroke-linecap="round" stroke-linejoin="round" stroke-width="1.5"/>
      <path id="Stroke_5" data-name="Stroke 5" d="M.5.5H.5" transform="translate(13.183 9.979)" fill="none" stroke="#FFFFFF" stroke-linecap="round" stroke-linejoin="round" stroke-width="1.5"/>
      <path id="Stroke_7" data-name="Stroke 7" d="M.5.5H.5" transform="translate(8.784 9.979)" fill="none" stroke="#FFFFFF" stroke-linecap="round" stroke-linejoin="round" stroke-width="1.5"/>
      <path id="Stroke_9" data-name="Stroke 9" d="M.5.5H.5" transform="translate(4.376 9.979)" fill="none" stroke="#FFFFFF" stroke-linecap="round" stroke-linejoin="round" stroke-width="1.5"/>
      <path id="Stroke_11" data-name="Stroke 11" d="M.5.5H.5" transform="translate(13.183 13.58)" fill="none" stroke="#FFFFFF" stroke-linecap="round" stroke-linejoin="round" stroke-width="1.5"/>
      <path id="Stroke_13" data-name="Stroke 13" d="M.5.5H.5" transform="translate(8.784 13.58)" fill="none" stroke="#FFFFFF" stroke-linecap="round" stroke-linejoin="round" stroke-width="1.5"/>
      <path id="Stroke_15" data-name="Stroke 15" d="M.5.5H.5" transform="translate(4.376 13.58)" fill="none" stroke="#FFFFFF" stroke-linecap="round" stroke-linejoin="round" stroke-width="1.5"/>
      <path id="Stroke_17" data-name="Stroke 17" d="M.5,0V3.262" transform="translate(12.783)" fill="none" stroke="#FFFFFF" stroke-linecap="round" stroke-linejoin="round" stroke-width="1.5"/>
      <path id="Stroke_19" data-name="Stroke 19" d="M.5,0V3.262" transform="translate(4.775)" fill="none" stroke="#FFFFFF" stroke-linecap="round" stroke-linejoin="round" stroke-width="1.5"/>
    </g>
  </g>
</svg>
