<svg xmlns="http://www.w3.org/2000/svg" width="19.261" height="17.387" viewBox="0 0 19.261 17.387">
  <path id="Path_545" data-name="Path 545" d="M18.435,9.123l1.812,3.432a1.193,1.193,0,0,0,.9.612l4.052.55a1.1,1.1,0,0,1,.663,1.907L22.931,18.3a1.073,1.073,0,0,0-.344.99l.692,3.772a1.181,1.181,0,0,1-1.735,1.179l-3.624-1.781a1.27,1.27,0,0,0-1.113,0l-3.624,1.781a1.181,1.181,0,0,1-1.735-1.179l.692-3.772a1.074,1.074,0,0,0-.344-.99L8.862,15.625a1.1,1.1,0,0,1,.663-1.907l4.052-.55a1.193,1.193,0,0,0,.9-.612L16.29,9.123A1.235,1.235,0,0,1,18.435,9.123Z" transform="translate(-7.732 -7.75)" fill="none" stroke="#234295" stroke-width="1.5"/>
</svg>
